<svg width="91" height="56" viewBox="0 0 91 56" fill="none" xmlns="http://www.w3.org/2000/svg">
<g clip-path="url(#clip0_671_21898)">
<path d="M7.75281 10.4655C8.82183 10.4655 9.83307 10.6678 10.7833 11.0755C11.7335 11.48 12.5618 12.0353 13.2648 12.7384C13.9679 13.4414 14.5233 14.2665 14.9278 15.2199C15.3323 16.1702 15.5377 17.1814 15.5377 18.2504C15.5377 19.3194 15.3355 20.3242 14.9278 21.2649C14.5233 22.2055 13.9679 23.0273 13.2648 23.7303C12.5618 24.4334 11.7368 24.9888 10.7833 25.3933C9.83307 25.7978 8.82183 26.0032 7.75281 26.0032C6.68379 26.0032 5.67897 25.801 4.73836 25.3933C3.79775 24.9888 2.97592 24.4334 2.27287 23.7303C1.56982 23.0273 1.01445 22.2055 0.609952 21.2649C0.205457 20.3242 0 19.3194 0 18.2504V3.39648H1.54414V13.5859C2.25682 12.6356 3.15249 11.878 4.23114 11.313C5.30979 10.748 6.48475 10.4655 7.7496 10.4655M7.75281 12.0385C6.90209 12.0385 6.09952 12.2023 5.34831 12.5297C4.5939 12.8572 3.93579 13.297 3.374 13.8523C2.80899 14.4077 2.36276 15.0658 2.03852 15.8267C1.71108 16.5907 1.54735 17.3965 1.54735 18.2472C1.54735 19.0979 1.71108 19.9005 2.03852 20.6517C2.36597 21.4029 2.8122 22.061 3.374 22.626C3.93579 23.191 4.59711 23.6373 5.34831 23.9615C6.09952 24.2889 6.90209 24.4527 7.75281 24.4527C8.60353 24.4527 9.41252 24.2889 10.1734 23.9615C10.9342 23.634 11.5955 23.1878 12.1477 22.626C12.703 22.061 13.1429 21.4029 13.4703 20.6517C13.7978 19.9005 13.9615 19.0979 13.9615 18.2472C13.9615 17.3965 13.7978 16.5875 13.4703 15.8267C13.1429 15.0658 12.703 14.4077 12.1477 13.8523C11.5923 13.297 10.9342 12.8572 10.1734 12.5297C9.40931 12.2023 8.60353 12.0385 7.75281 12.0385Z" fill="#414042"/>
<path d="M23.8211 10.4362C24.614 10.4362 25.3652 10.5903 26.0779 10.8953C26.7906 11.2035 27.4102 11.6176 27.9334 12.1441C28.4567 12.6673 28.874 13.2869 29.1822 13.9996C29.4904 14.7123 29.6413 15.4667 29.6413 16.2564V25.6433H28.0683V16.2564C28.0683 15.6625 27.9591 15.1072 27.7408 14.5935C27.5225 14.0799 27.2208 13.6272 26.8355 13.242C26.4503 12.8568 25.9976 12.555 25.484 12.3367C24.9704 12.1184 24.415 12.0092 23.8211 12.0092C23.2272 12.0092 22.6686 12.1184 22.1421 12.3367C21.6156 12.555 21.163 12.8568 20.7745 13.242C20.3893 13.6272 20.0875 14.0799 19.8692 14.5935C19.6509 15.1104 19.5418 15.6625 19.5418 16.2564V25.6433H17.9688V3.36719H19.5418V12.3078C20.0779 11.7332 20.7103 11.2773 21.4423 10.9402C22.1742 10.6031 22.9671 10.4362 23.8179 10.4362" fill="#414042"/>
<path d="M39.9293 10.4043C40.9983 10.4043 42.0095 10.6065 42.9598 11.0142C43.91 11.4187 44.7383 11.9741 45.4413 12.6772C46.1444 13.3802 46.6998 14.2053 47.1042 15.1587C47.5087 16.109 47.7142 17.1202 47.7142 18.1892V25.6146H46.1412V22.8537C45.4477 23.804 44.5617 24.5584 43.4831 25.1106C42.4044 25.6659 41.2198 25.942 39.9325 25.942C38.8635 25.942 37.8587 25.7398 36.9181 25.3321C35.9774 24.9276 35.1556 24.3722 34.4526 23.6691C33.7495 22.9661 33.1941 22.1443 32.7896 21.2037C32.3851 20.263 32.1797 19.2582 32.1797 18.1892C32.1797 17.1202 32.3819 16.109 32.7896 15.1587C33.1941 14.2085 33.7495 13.3802 34.4526 12.6772C35.1556 11.9741 35.9774 11.4187 36.9181 11.0142C37.8587 10.6098 38.8635 10.4043 39.9325 10.4043M39.9293 11.9805C39.0786 11.9805 38.276 12.1443 37.5248 12.4717C36.7704 12.7992 36.1123 13.239 35.5505 13.7943C34.9855 14.3497 34.5392 15.0078 34.215 15.7687C33.8876 16.5327 33.7238 17.3385 33.7238 18.1892C33.7238 19.0399 33.8876 19.8425 34.215 20.5937C34.5424 21.3449 34.9887 22.003 35.5505 22.568C36.1123 23.133 36.7736 23.5793 37.5248 23.9035C38.276 24.2309 39.0786 24.3947 39.9293 24.3947C40.78 24.3947 41.589 24.2309 42.3498 23.9035C43.1107 23.576 43.772 23.1298 44.3242 22.568C44.8795 22.003 45.3193 21.3449 45.6468 20.5937C45.9742 19.8425 46.138 19.0399 46.138 18.1892C46.138 17.3385 45.9742 16.5295 45.6468 15.7687C45.3193 15.0078 44.8795 14.3465 44.3242 13.7943C43.7688 13.239 43.1107 12.7992 42.3498 12.4717C41.5858 12.1443 40.78 11.9805 39.9293 11.9805Z" fill="#414042"/>
<path d="M51.8586 25.6435H50.3145V18.2181C50.3145 17.1491 50.5167 16.1379 50.9244 15.1876C51.3289 14.2374 51.8843 13.4091 52.5873 12.7061C53.2904 12.003 54.1122 11.4477 55.0528 11.0432C55.5376 10.8345 56.0416 10.6772 56.5616 10.5777C57.3963 10.4139 58.2631 10.5263 59.04 10.8794L59.6756 11.1716L58.8442 11.605C58.3787 11.8489 57.8714 11.9902 57.3482 12.0512C56.7607 12.1186 56.1989 12.2663 55.6596 12.5006C54.9051 12.8281 54.2502 13.2679 53.6852 13.8233C53.1202 14.3786 52.674 15.0367 52.3498 15.7976C52.0223 16.5616 51.8586 17.3674 51.8586 18.2181V25.6435Z" fill="#414042"/>
<path d="M66.8766 10.4043C67.9456 10.4043 68.9568 10.6065 69.9071 11.0142C70.8573 11.4187 71.6855 11.9741 72.3886 12.6772C73.0916 13.3802 73.647 14.2053 74.0515 15.1587C74.456 16.109 74.6615 17.1202 74.6615 18.1892V25.6146H73.0884V22.8537C72.395 23.804 71.509 24.5584 70.4303 25.1106C69.3517 25.6659 68.1671 25.942 66.8798 25.942C65.8107 25.942 64.8059 25.7398 63.8653 25.3321C62.9247 24.9276 62.1029 24.3722 61.3998 23.6691C60.6968 22.9661 60.1414 22.1443 59.7369 21.2037C59.3324 20.263 59.127 19.2582 59.127 18.1892C59.127 17.1202 59.3292 16.109 59.7369 15.1587C60.1414 14.2085 60.6968 13.3802 61.3998 12.6772C62.1029 11.9741 62.9247 11.4187 63.8653 11.0142C64.8059 10.6098 65.8107 10.4043 66.8798 10.4043M66.8766 11.9805C66.0258 11.9805 65.2233 12.1443 64.4721 12.4717C63.7176 12.7992 63.0595 13.239 62.4977 13.7943C61.9327 14.3497 61.4865 15.0078 61.1623 15.7687C60.8348 16.5327 60.6711 17.3385 60.6711 18.1892C60.6711 19.0399 60.8348 19.8425 61.1623 20.5937C61.4897 21.3449 61.9359 22.003 62.4977 22.568C63.0595 23.133 63.7209 23.5793 64.4721 23.9035C65.2233 24.2309 66.0258 24.3947 66.8766 24.3947C67.7273 24.3947 68.5363 24.2309 69.2971 23.9035C70.0579 23.576 70.7192 23.1298 71.2714 22.568C71.8268 22.003 72.2666 21.3449 72.5941 20.5937C72.9215 19.8425 73.0852 19.0399 73.0852 18.1892C73.0852 17.3385 72.9215 16.5295 72.5941 15.7687C72.2666 15.0078 71.8268 14.3465 71.2714 13.7943C70.716 13.239 70.0579 12.7992 69.2971 12.4717C68.5331 12.1443 67.7273 11.9805 66.8766 11.9805Z" fill="#414042"/>
<path d="M76.8691 6.95898H78.4133V10.8498H84.028V12.394H78.4133V21.9863C78.4133 22.6219 78.6412 23.1644 79.0971 23.6203C79.5529 24.0762 80.1083 24.3041 80.76 24.3041C81.4117 24.3041 81.9382 24.0762 82.394 23.6203C82.8499 23.1644 83.0778 22.6219 83.0778 21.9863H84.622C84.622 22.5224 84.5224 23.0264 84.3266 23.5015C84.1276 23.9766 83.8515 24.3876 83.4951 24.7343C83.1388 25.081 82.7279 25.3571 82.2624 25.5657C81.7969 25.7744 81.2961 25.8771 80.7632 25.8771C80.2303 25.8771 79.7231 25.7744 79.248 25.5657C78.7728 25.3571 78.3619 25.081 78.0152 24.7343C77.6685 24.3876 77.3924 23.9766 77.1837 23.5015C76.9751 23.0264 76.8724 22.5224 76.8724 21.9863V6.95898H76.8691Z" fill="#414042"/>
<path d="M31.8904 33.6621L25.5052 48.5128H23.8423L17.457 33.6621H19.1488L24.6737 46.5546L30.1986 33.6621H31.8904Z" fill="#414042"/>
<path d="M39.9996 33.2773C41.0686 33.2773 42.0799 33.4796 43.0301 33.8873C43.9803 34.2918 44.8086 34.8472 45.5116 35.5502C46.2147 36.2533 46.7701 37.0783 47.1746 38.0318C47.5791 38.982 47.7845 39.9932 47.7845 41.0623V48.4876H46.2115V45.7268C45.5181 46.677 44.632 47.4314 43.5534 47.9836C42.4747 48.5358 41.2901 48.8151 40.0028 48.8151C38.9338 48.8151 37.929 48.6128 36.9884 48.2051C36.0478 47.8006 35.2259 47.2452 34.5229 46.5422C33.8198 45.8391 33.2644 45.0173 32.86 44.0767C32.4555 43.1361 32.25 42.1313 32.25 41.0623C32.25 39.9932 32.4522 38.982 32.86 38.0318C33.2644 37.0815 33.8198 36.2533 34.5229 35.5502C35.2259 34.8472 36.0478 34.2918 36.9884 33.8873C37.929 33.4828 38.9338 33.2773 40.0028 33.2773M39.9996 34.8504C39.1489 34.8504 38.3463 35.0141 37.5951 35.3415C36.8407 35.669 36.1826 36.1088 35.6208 36.6642C35.0558 37.2196 34.6096 37.8777 34.2853 38.6385C33.9579 39.4025 33.7941 40.2083 33.7941 41.059C33.7941 41.9098 33.9579 42.7123 34.2853 43.4635C34.6128 44.2147 35.059 44.8728 35.6208 45.4379C36.1858 46.0029 36.8439 46.4491 37.5951 46.7733C38.3463 47.1008 39.1489 47.2645 39.9996 47.2645C40.8503 47.2645 41.6593 47.1008 42.4201 46.7733C43.181 46.4459 43.8423 45.9997 44.3945 45.4379C44.9498 44.8728 45.3896 44.2147 45.7171 43.4635C46.0445 42.7123 46.2083 41.9098 46.2083 41.059C46.2083 40.2083 46.0445 39.3993 45.7171 38.6385C45.3896 37.8777 44.9498 37.2163 44.3945 36.6642C43.8391 36.1088 43.181 35.669 42.4201 35.3415C41.6561 35.0141 40.8503 34.8504 39.9996 34.8504Z" fill="#414042"/>
<path d="M50.3086 27.8138H51.8527V44.9502C51.8527 45.6051 52.0807 46.1572 52.5365 46.6131C52.9924 47.069 53.5478 47.2969 54.1994 47.2969V48.841C53.6633 48.841 53.1593 48.7415 52.6842 48.5425C52.2091 48.3434 51.7982 48.0674 51.4515 47.711C51.1047 47.3547 50.8287 46.9373 50.62 46.4622C50.4113 45.9871 50.3086 45.4831 50.3086 44.947V27.8105V27.8138Z" fill="#414042"/>
<path d="M56.3379 27.8138H57.882V44.9502C57.882 45.6051 58.11 46.1572 58.5658 46.6131C59.0217 47.069 59.5771 47.2969 60.2287 47.2969V48.841C59.6926 48.841 59.1886 48.7415 58.7135 48.5425C58.2384 48.3434 57.8275 48.0674 57.4807 47.711C57.134 47.3547 56.858 46.9373 56.6493 46.4622C56.4406 45.9871 56.3379 45.4831 56.3379 44.947V27.8105V27.8138Z" fill="#414042"/>
<path d="M69.1072 48.9017C68.0382 48.9017 67.0269 48.6994 66.0767 48.2917C65.1264 47.8872 64.2982 47.3319 63.5951 46.6288C62.8921 45.9258 62.3367 45.1039 61.9322 44.1633C61.5277 43.2227 61.3223 42.2179 61.3223 41.1489C61.3223 40.0799 61.5245 39.0686 61.9322 38.1184C62.3367 37.1681 62.8921 36.3431 63.5951 35.6401C64.2982 34.937 65.1264 34.3816 66.0767 33.9771C67.0269 33.5726 68.0382 33.3672 69.1072 33.3672C70.1762 33.3672 71.181 33.5694 72.1216 33.9771C73.0622 34.3816 73.8841 34.937 74.5871 35.6401C75.2902 36.3431 75.8455 37.1681 76.25 38.1184C76.6545 39.0686 76.86 40.0799 76.86 41.1489V41.5341C76.86 41.6529 76.8504 41.7813 76.8311 41.9194H62.9306C63.0301 42.693 63.2581 43.4057 63.6144 44.0574C63.9707 44.7123 64.4202 45.2869 64.9659 45.7813C65.5117 46.2757 66.1377 46.6609 66.8536 46.9402C67.5662 47.2163 68.3174 47.3576 69.1104 47.3576C69.685 47.3576 70.2276 47.2484 70.7444 47.0301C71.2581 46.8118 71.7139 46.5068 72.112 46.1088L73.2099 47.2067C72.6931 47.7203 72.0863 48.1312 71.3833 48.4394C70.6802 48.7476 69.9226 48.8985 69.1104 48.8985M75.2581 40.3752C75.1585 39.6015 74.9306 38.8889 74.5743 38.2372C74.2179 37.5823 73.7685 37.0108 73.2227 36.5133C72.677 36.0189 72.0542 35.6336 71.3512 35.3543C70.6481 35.0783 69.9001 34.937 69.1072 34.937C68.3142 34.937 67.563 35.0751 66.8504 35.3543C66.1377 35.6304 65.5085 36.0189 64.9627 36.5133C64.417 37.0076 63.9675 37.5823 63.6112 38.2372C63.2548 38.8921 63.0269 39.6047 62.9274 40.3752H75.2548H75.2581Z" fill="#414042"/>
<path d="M85.1789 48.8129C84.3667 48.8129 83.6091 48.6588 82.906 48.3539C82.203 48.0457 81.5898 47.6316 81.0633 47.1051C80.5401 46.5818 80.1227 45.9654 79.8145 45.2624C79.5063 44.5593 79.3555 43.8017 79.3555 42.9895V33.6348H80.9285V42.9895C80.9285 43.5834 81.0377 44.1452 81.2559 44.6685C81.4742 45.1917 81.776 45.6476 82.1612 46.036C82.5465 46.4245 82.9959 46.723 83.5128 46.9413C84.0264 47.1596 84.5818 47.2688 85.1757 47.2688C85.7696 47.2688 86.325 47.1596 86.8386 46.9413C87.3523 46.723 87.8049 46.4213 88.1901 46.036C88.5754 45.6508 88.8836 45.195 89.1115 44.6685C89.3394 44.1452 89.4518 43.5834 89.4518 42.9895V33.6348H90.9959V50.1805C90.9959 50.9927 90.8418 51.7503 90.5368 52.4534C90.2287 53.1564 89.8145 53.7696 89.2881 54.2961C88.7616 54.8194 88.1484 55.2367 87.4454 55.5449C86.7423 55.8531 85.9847 56.0039 85.1725 56.0039V54.4598C85.7664 54.4598 86.3218 54.3474 86.8354 54.1195C87.349 53.8916 87.8017 53.5866 88.1869 53.1982C88.5722 52.8097 88.8804 52.3603 89.1083 51.8466C89.3362 51.333 89.4486 50.7776 89.4486 50.1837V46.9478C88.9157 47.5224 88.28 47.9783 87.5481 48.3153C86.8161 48.6524 86.0232 48.8194 85.1725 48.8194" fill="#414042"/>
<mask id="mask0_671_21898" style="mask-type:luminance" maskUnits="userSpaceOnUse" x="48" y="5" width="5" height="9">
<path d="M52.5953 5.3125H48.0527V13.3767H52.5953V5.3125Z" fill="white"/>
</mask>
<g mask="url(#mask0_671_21898)">
<path d="M48.0845 9.65279C47.7795 7.42486 49.7699 5.3125 49.7699 5.3125C49.7699 5.3125 52.2579 6.80849 52.5628 9.03642C52.8678 11.2643 50.8775 13.3767 50.8775 13.3767C50.8775 13.3767 48.3895 11.8807 48.0845 9.65279Z" fill="#1E9948"/>
</g>
<mask id="mask1_671_21898" style="mask-type:luminance" maskUnits="userSpaceOnUse" x="53" y="13" width="7" height="4">
<path d="M59.3455 13.377H53.75V16.4845H59.3455V13.377Z" fill="white"/>
</mask>
<g mask="url(#mask1_671_21898)">
<path d="M56.5461 13.377C58.0903 13.377 59.3423 14.9307 59.3423 14.9307C59.3423 14.9307 58.0903 16.4845 56.5461 16.4845C55.002 16.4845 53.75 14.9307 53.75 14.9307C53.75 14.9307 55.002 13.377 56.5461 13.377Z" fill="#2768B2"/>
</g>
<mask id="mask2_671_21898" style="mask-type:luminance" maskUnits="userSpaceOnUse" x="53" y="0" width="8" height="11">
<path d="M60.5699 0H53.793V10.1156H60.5699V0Z" fill="white"/>
</mask>
<g mask="url(#mask2_671_21898)">
<path d="M59.9928 6.49117C61.4182 3.69823 59.7617 0 59.7617 0C59.7617 0 55.797 0.831461 54.3716 3.6244C52.9463 6.41734 54.6028 10.1156 54.6028 10.1156C54.6028 10.1156 58.5675 9.28411 59.9928 6.49117Z" fill="#F18721"/>
</g>
</g>
<defs>
<clipPath id="clip0_671_21898">
<rect width="91.0016" height="56" fill="white"/>
</clipPath>
</defs>
</svg>
